<svg xmlns="http://www.w3.org/2000/svg" width="420" height="520" viewBox="0 0 420 520">
    <rect width="100%" height="100%" fill="none"/>
    <defs>
      <filter id="shadow" x="-20%" y="-20%" width="140%" height="140%">
        <feDropShadow dx="0" dy="6" stdDeviation="8" flood-color="#000000" flood-opacity="0.10"/>
      </filter>
      <style>
        .title { font-family: Arial, Helvetica, sans-serif; font-weight: 700; fill: #233A34; text-anchor: middle; }
        .body { font-family: Arial, Helvetica, sans-serif; font-weight: 400; fill: #4F5E57; text-anchor: middle; }
        .line { stroke: #233A34; stroke-width: 5; stroke-linecap: round; stroke-linejoin: round; fill: none; }
        .fill-mint { fill: #A8C8A4; stroke: #233A34; stroke-width: 5; stroke-linejoin: round; }
        .fill-skin { fill: #F3D8C6; stroke: #233A34; stroke-width: 5; stroke-linejoin: round; }
        .fill-blue { fill: #A9B8BD; stroke: #233A34; stroke-width: 5; stroke-linejoin: round; }
        .fill-beige { fill: #F3EEDF; }
        .fill-soil { fill: #8A7A67; stroke: #233A34; stroke-width: 5; stroke-linejoin: round; }
      </style>
    </defs>
    
      <rect x="20" y="20" rx="28" ry="28" width="380" height="480" fill="#FFFFFF" stroke="#E5E1D8" filter="url(#shadow)"/>
      <rect x="60" y="55" rx="18" ry="18" width="300" height="170" class="fill-beige"/>
      
    <path d="M145 184 C178 171, 242 171, 275 184 L280 200 L140 200 Z" class="fill-soil"/>
    <line x1="210" y1="182" x2="210" y2="121" class="line"/>
    <path d="M206 142 C180 118, 150 114, 126 116 C136 142, 163 159, 200 160 Z" class="fill-mint"/>
    <path d="M215 120 C234 91, 268 81, 301 89 C311 126, 292 156, 257 163 C259 147, 254 130, 241 119 Z" class="fill-mint"/>
    <text x="268" y="133" font-size="44" class="title">?</text>
    
      <text x="210.0" y="295" font-size="30" class="title">Iniciantes</text>

      
    
    </svg>