<svg xmlns="http://www.w3.org/2000/svg" width="420" height="520" viewBox="0 0 420 520">
    <rect width="100%" height="100%" fill="none"/>
    <defs>
      <filter id="shadow" x="-20%" y="-20%" width="140%" height="140%">
        <feDropShadow dx="0" dy="6" stdDeviation="8" flood-color="#000000" flood-opacity="0.10"/>
      </filter>
      <style>
        .title { font-family: Arial, Helvetica, sans-serif; font-weight: 700; fill: #233A34; text-anchor: middle; }
        .body { font-family: Arial, Helvetica, sans-serif; font-weight: 400; fill: #4F5E57; text-anchor: middle; }
        .line { stroke: #233A34; stroke-width: 5; stroke-linecap: round; stroke-linejoin: round; fill: none; }
        .fill-mint { fill: #A8C8A4; stroke: #233A34; stroke-width: 5; stroke-linejoin: round; }
        .fill-skin { fill: #F3D8C6; stroke: #233A34; stroke-width: 5; stroke-linejoin: round; }
        .fill-blue { fill: #A9B8BD; stroke: #233A34; stroke-width: 5; stroke-linejoin: round; }
        .fill-beige { fill: #F3EEDF; }
        .fill-soil { fill: #8A7A67; stroke: #233A34; stroke-width: 5; stroke-linejoin: round; }
      </style>
    </defs>
    
      <rect x="20" y="20" rx="28" ry="28" width="380" height="480" fill="#FFFFFF" stroke="#E5E1D8" filter="url(#shadow)"/>
      <rect x="60" y="55" rx="18" ry="18" width="300" height="170" class="fill-beige"/>
      
    <line x1="210" y1="76" x2="210" y2="183" class="line"/>
    <path d="M184 80 C194 104, 226 104, 236 80" class="line"/>
    <path d="M188 100 C198 121, 222 121, 232 100" class="line"/>
    <path d="M196 183 C190 196, 198 206, 210 210 C222 206, 230 196, 224 183" class="line"/>
    <path d="M170 82 C148 82, 126 92, 108 112 C133 120, 161 112, 181 94" class="fill-mint"/>
    <path d="M250 82 C272 82, 294 92, 312 112 C287 120, 259 112, 239 94" class="fill-mint"/>
    <circle cx="110" cy="150" r="12" class="fill-mint"/>
    <circle cx="145" cy="128" r="10" class="fill-mint"/>
    <circle cx="146" cy="173" r="10" class="fill-mint"/>
    <circle cx="310" cy="150" r="12" class="fill-mint"/>
    <circle cx="275" cy="128" r="10" class="fill-mint"/>
    <circle cx="274" cy="173" r="10" class="fill-mint"/>
    <line x1="122" y1="145" x2="155" y2="132" class="line"/>
    <line x1="122" y1="155" x2="154" y2="170" class="line"/>
    <line x1="298" y1="145" x2="265" y2="132" class="line"/>
    <line x1="298" y1="155" x2="266" y2="170" class="line"/>
    
      <text x="210.0" y="295" font-size="30" class="title">Médicos e</text>
<text x="210.0" y="337" font-size="30" class="title">Veterinários</text>

      
    
    </svg>