<svg xmlns="http://www.w3.org/2000/svg" width="420" height="520" viewBox="0 0 420 520">
    <rect width="100%" height="100%" fill="none"/>
    <defs>
      <filter id="shadow" x="-20%" y="-20%" width="140%" height="140%">
        <feDropShadow dx="0" dy="6" stdDeviation="8" flood-color="#000000" flood-opacity="0.10"/>
      </filter>
      <style>
        .title { font-family: Arial, Helvetica, sans-serif; font-weight: 700; fill: #233A34; text-anchor: middle; }
        .body { font-family: Arial, Helvetica, sans-serif; font-weight: 400; fill: #4F5E57; text-anchor: middle; }
        .line { stroke: #233A34; stroke-width: 5; stroke-linecap: round; stroke-linejoin: round; fill: none; }
        .fill-mint { fill: #A8C8A4; stroke: #233A34; stroke-width: 5; stroke-linejoin: round; }
        .fill-skin { fill: #F3D8C6; stroke: #233A34; stroke-width: 5; stroke-linejoin: round; }
        .fill-blue { fill: #A9B8BD; stroke: #233A34; stroke-width: 5; stroke-linejoin: round; }
        .fill-beige { fill: #F3EEDF; }
        .fill-soil { fill: #8A7A67; stroke: #233A34; stroke-width: 5; stroke-linejoin: round; }
      </style>
    </defs>
    
      <rect x="20" y="20" rx="28" ry="28" width="380" height="480" fill="#FFFFFF" stroke="#E5E1D8" filter="url(#shadow)"/>
      <rect x="60" y="55" rx="18" ry="18" width="300" height="170" class="fill-beige"/>
      
    <circle cx="210" cy="125" r="42" fill="#D8CEC0" stroke="#233A34" stroke-width="5"/>
    <path d="M170 120 C176 84, 244 76, 252 112 L252 123 C239 117, 218 119, 194 110 C183 106, 176 110, 170 120Z" fill="#8E877E" stroke="#233A34" stroke-width="5"/>
    <path d="M187 138 q8 8 16 0" class="line"/>
    <path d="M217 138 q8 8 16 0" class="line"/>
    <path d="M196 163 q14 10 28 0" class="line"/>
    <path d="M165 238 C174 197, 248 197, 257 238" class="fill-blue"/>
    
      <text x="210.0" y="295" font-size="30" class="title">Paciente</text>
<text x="210.0" y="337" font-size="30" class="title">Adulto</text>

      
    
    </svg>