<svg xmlns="http://www.w3.org/2000/svg" width="420" height="520" viewBox="0 0 420 520">
    <rect width="100%" height="100%" fill="none"/>
    <defs>
      <filter id="shadow" x="-20%" y="-20%" width="140%" height="140%">
        <feDropShadow dx="0" dy="6" stdDeviation="8" flood-color="#000000" flood-opacity="0.10"/>
      </filter>
      <style>
        .title { font-family: Arial, Helvetica, sans-serif; font-weight: 700; fill: #233A34; text-anchor: middle; }
        .body { font-family: Arial, Helvetica, sans-serif; font-weight: 400; fill: #4F5E57; text-anchor: middle; }
        .line { stroke: #233A34; stroke-width: 5; stroke-linecap: round; stroke-linejoin: round; fill: none; }
        .fill-mint { fill: #A8C8A4; stroke: #233A34; stroke-width: 5; stroke-linejoin: round; }
        .fill-skin { fill: #F3D8C6; stroke: #233A34; stroke-width: 5; stroke-linejoin: round; }
        .fill-blue { fill: #A9B8BD; stroke: #233A34; stroke-width: 5; stroke-linejoin: round; }
        .fill-beige { fill: #F3EEDF; }
        .fill-soil { fill: #8A7A67; stroke: #233A34; stroke-width: 5; stroke-linejoin: round; }
      </style>
    </defs>
    
      <rect x="20" y="20" rx="28" ry="28" width="380" height="480" fill="#FFFFFF" stroke="#E5E1D8" filter="url(#shadow)"/>
      <rect x="60" y="55" rx="18" ry="18" width="300" height="170" class="fill-beige"/>
      
    <path d="M120 175 C150 175, 176 175, 205 175 C214 175, 223 170, 228 163 L260 123 C269 111, 286 108, 295 119 C304 130, 301 146, 289 154 L256 177 C244 185, 231 191, 216 191 L145 191 C130 191, 120 184, 120 175Z" class="fill-skin"/>
    <path d="M108 162 L132 162 L132 198 L108 198 Z" class="fill-mint"/>
    <path d="M210 92 C210 78, 222 68, 236 68 C246 68, 255 73, 260 82 C265 73, 274 68, 284 68 C298 68, 310 78, 310 92 C310 122, 278 132, 260 147 C242 132, 210 122, 210 92Z" class="fill-mint"/>
    
      <text x="210.0" y="295" font-size="30" class="title">Responsável</text>
<text x="210.0" y="337" font-size="30" class="title">Legal</text>

      
    
    </svg>