<svg xmlns="http://www.w3.org/2000/svg" width="420" height="520" viewBox="0 0 420 520">
    <rect width="100%" height="100%" fill="none"/>
    <defs>
      <filter id="shadow" x="-20%" y="-20%" width="140%" height="140%">
        <feDropShadow dx="0" dy="6" stdDeviation="8" flood-color="#000000" flood-opacity="0.10"/>
      </filter>
      <style>
        .title { font-family: Arial, Helvetica, sans-serif; font-weight: 700; fill: #233A34; text-anchor: middle; }
        .body { font-family: Arial, Helvetica, sans-serif; font-weight: 400; fill: #4F5E57; text-anchor: middle; }
        .line { stroke: #233A34; stroke-width: 5; stroke-linecap: round; stroke-linejoin: round; fill: none; }
        .fill-mint { fill: #A8C8A4; stroke: #233A34; stroke-width: 5; stroke-linejoin: round; }
        .fill-skin { fill: #F3D8C6; stroke: #233A34; stroke-width: 5; stroke-linejoin: round; }
        .fill-blue { fill: #A9B8BD; stroke: #233A34; stroke-width: 5; stroke-linejoin: round; }
        .fill-beige { fill: #F3EEDF; }
        .fill-soil { fill: #8A7A67; stroke: #233A34; stroke-width: 5; stroke-linejoin: round; }
      </style>
    </defs>
    
      <rect x="20" y="20" rx="28" ry="28" width="380" height="480" fill="#FFFFFF" stroke="#E5E1D8" filter="url(#shadow)"/>
      <rect x="60" y="55" rx="18" ry="18" width="300" height="170" class="fill-beige"/>
      
    <line x1="210" y1="85" x2="210" y2="188" class="line"/>
    <line x1="160" y1="102" x2="260" y2="102" class="line"/>
    <path d="M198 85 Q210 97 222 85" class="line"/>
    <line x1="160" y1="102" x2="132" y2="133" class="line"/>
    <line x1="260" y1="102" x2="288" y2="133" class="line"/>
    <path d="M112 133 L152 133 L142 153 Q132 165 122 153 Z" class="fill-mint"/>
    <path d="M268 133 L308 133 L298 153 Q288 165 278 153 Z" class="fill-mint"/>
    <rect x="175" y="188" width="70" height="12" rx="6" fill="#233A34"/>
    
      <text x="210.0" y="295" font-size="30" class="title">Segurança Jurídica</text>

      <text x="210.0" y="372" font-size="19" class="body">Conformidade e respaldo</text>
<text x="210.0" y="400" font-size="19" class="body">para o uso seguro</text>
<text x="210.0" y="428" font-size="19" class="body">do produto.</text>

    
    </svg>